<?xml version="1.0" encoding="UTF-8"?>
<svg width="40px" height="49px" viewBox="0 0 40 49" version="1.1" xmlns="http://www.w3.org/2000/svg" xmlns:xlink="http://www.w3.org/1999/xlink">
    <!-- Generator: sketchtool 52.3 (67297) - http://www.bohemiancoding.com/sketch -->
    <title>73F75E3B-3D33-43C7-B2C3-3B4425B2148A</title>
    <desc>Created with sketchtool.</desc>
    <g id="Landing-Page" stroke="none" stroke-width="1" fill="none" fill-rule="evenodd">
        <g id="Landing-page" transform="translate(-113.000000, -391.000000)" fill-rule="nonzero">
            <g id="Icons" transform="translate(109.000000, 391.000000)">
                <g id="005_cup_goblet_olympic_competition_games_sport_winner_victory_triumph_champion_prizes_leader_" transform="translate(3.000000, 0.000000)">
                    <path d="M26.6768136,17.7966102 C26.6768136,17.7966102 7.86240678,17.7966102 7.86240678,17.7966102 C7.86240678,17.7966102 7.86240678,26.4788136 7.86240678,26.4788136 C7.86240678,29.1177966 8.91579661,31.5550847 10.7047797,33.3533898 C10.718339,33.370339 10.7361356,33.3822034 10.748,33.4 C11.4785085,34.1245763 12.3166441,34.7533898 13.2725763,35.2322034 C15.1632542,36.1771186 16.3369831,38.0779661 16.3369831,40.190678 C16.3369831,40.190678 16.3369831,40.8898305 16.3369831,40.8898305 C16.3369831,44.0440678 13.7717288,46.6101695 10.6166441,46.6101695 C10.6166441,46.6101695 8.70986441,46.6101695 8.70986441,46.6101695 C8.24291525,46.6101695 7.86240678,46.990678 7.86240678,47.4576271 C7.86240678,47.9245763 8.24291525,48.3050847 8.70986441,48.3050847 C8.70986441,48.3050847 25.8293559,48.3050847 25.8293559,48.3050847 C26.2963051,48.3050847 26.6768136,47.9245763 26.6768136,47.4576271 C26.6768136,46.990678 26.2963051,46.6101695 25.8293559,46.6101695 C25.8293559,46.6101695 23.9225763,46.6101695 23.9225763,46.6101695 C20.7674915,46.6101695 18.2022373,44.0440678 18.2022373,40.8898305 C18.2022373,40.8898305 18.2022373,40.190678 18.2022373,40.190678 C18.2022373,38.0771186 19.3759661,36.1771186 21.2666441,35.2322034 C24.6030847,33.5635593 26.6768136,30.209322 26.6768136,26.4788136 C26.6768136,26.4788136 26.6768136,17.7966102 26.6768136,17.7966102 Z" id="Path-Copy" fill="#FF5111"></path>
                    <path d="M37.1425932,27.2823051 C37.1425932,27.2823051 28.4834407,32.3144915 28.4834407,32.3144915 C28.4667119,32.3240508 28.4483898,32.3200678 28.431661,32.3280339 C27.5864576,33.210678 26.6010508,33.9738305 25.4626949,34.5434068 C24.2287458,35.1599831 23.4632034,36.4003051 23.4632034,37.7792373 C23.4632034,37.7792373 23.4632034,38.4364407 23.4632034,38.4364407 C23.4632034,40.5227627 25.1599831,42.220339 27.2471017,42.220339 C27.2471017,42.220339 29.0394746,42.220339 29.0394746,42.220339 C30.3570678,42.220339 31.4293051,43.2925763 31.4293051,44.6101695 C31.4293051,45.9277627 30.3570678,47 29.0394746,47 C29.0394746,47 12.9471525,47 12.9471525,47 C11.6295593,47 10.557322,45.9277627 10.557322,44.6101695 C10.557322,43.2925763 11.6295593,42.220339 12.9471525,42.220339 C12.9471525,42.220339 14.7395254,42.220339 14.7395254,42.220339 C16.8258475,42.220339 18.5234237,40.5227627 18.5234237,38.4364407 C18.5234237,38.4364407 18.5234237,37.7792373 18.5234237,37.7792373 C18.5234237,36.4003051 17.7570847,35.1599831 16.5239322,34.5434068 C15.4524915,34.0072881 14.5164746,33.2998983 13.7039322,32.4849661 C13.7039322,32.4849661 4.68550847,27.2823051 4.68550847,27.2823051 C2.41118644,25.9702881 0.998,23.5238983 0.998,20.8982712 C0.998,19.5488136 1.68388136,18.3196441 2.83179661,17.6098644 C3.98050847,16.9008814 5.38652542,16.8379492 6.59338983,17.4401864 C6.59338983,17.4401864 10.557322,19.4229492 10.557322,19.4229492 C10.557322,19.4229492 10.557322,16.7288136 10.557322,16.7288136 C10.557322,16.7288136 9.76071186,16.7288136 9.76071186,16.7288136 C9.32098305,16.7288136 8.96410169,16.3719322 8.96410169,15.9322034 C8.96410169,15.4924746 9.32098305,15.1355932 9.76071186,15.1355932 C9.76071186,15.1355932 11.3539322,15.1355932 11.3539322,15.1355932 C11.3539322,15.1355932 30.6326949,15.1355932 30.6326949,15.1355932 C30.6326949,15.1355932 32.2259153,15.1355932 32.2259153,15.1355932 C32.6656441,15.1355932 33.0225254,15.4924746 33.0225254,15.9322034 C33.0225254,16.3719322 32.6656441,16.7288136 32.2259153,16.7288136 C32.2259153,16.7288136 31.4293051,16.7288136 31.4293051,16.7288136 C31.4293051,16.7288136 31.4293051,19.3424915 31.4293051,19.3424915 C31.4293051,19.3424915 35.2339153,17.4401864 35.2339153,17.4401864 C36.4407797,16.8371525 37.8467966,16.9000847 38.9955085,17.6098644 C40.1434237,18.3196441 40.8285085,19.5488136 40.8285085,20.8982712 C40.8285085,23.5238983 39.4161186,25.9702881 37.1425932,27.2823051 Z M10.557322,24.8900847 C10.557322,24.8900847 10.557322,21.2041695 10.557322,21.2041695 C10.557322,21.2041695 5.88042373,18.8661186 5.88042373,18.8661186 C5.17064407,18.5108305 4.34376271,18.5482712 3.6690339,18.9656949 C2.99430508,19.382322 2.59122034,20.1048475 2.59122034,20.8982712 C2.59122034,22.9559153 3.69850847,24.8733559 5.48132203,25.9025763 C5.48132203,25.9025763 11.5451186,29.4004915 11.5451186,29.4004915 C10.9094237,28.0135932 10.557322,26.4856949 10.557322,24.8900847 Z M29.8360847,16.7288136 C29.8360847,16.7288136 12.1505424,16.7288136 12.1505424,16.7288136 C12.1505424,16.7288136 12.1505424,24.8900847 12.1505424,24.8900847 C12.1505424,27.3707288 13.1407288,29.6617797 14.8223729,31.3521864 C14.8351186,31.3681186 14.8518475,31.3792712 14.863,31.396 C15.549678,32.0771017 16.3375254,32.6681864 17.2361017,33.1182712 C19.013339,34.0064915 20.1166441,35.7932881 20.1166441,37.7792373 C20.1166441,37.7792373 20.1166441,38.4364407 20.1166441,38.4364407 C20.1166441,41.4014237 17.7053051,43.8135593 14.7395254,43.8135593 C14.7395254,43.8135593 12.9471525,43.8135593 12.9471525,43.8135593 C12.5082203,43.8135593 12.1505424,44.1712373 12.1505424,44.6101695 C12.1505424,45.0491017 12.5082203,45.4067797 12.9471525,45.4067797 C12.9471525,45.4067797 29.0394746,45.4067797 29.0394746,45.4067797 C29.4784068,45.4067797 29.8360847,45.0491017 29.8360847,44.6101695 C29.8360847,44.1712373 29.4784068,43.8135593 29.0394746,43.8135593 C29.0394746,43.8135593 27.2471017,43.8135593 27.2471017,43.8135593 C24.281322,43.8135593 21.8699831,41.4014237 21.8699831,38.4364407 C21.8699831,38.4364407 21.8699831,37.7792373 21.8699831,37.7792373 C21.8699831,35.7924915 22.9732881,34.0064915 24.7505254,33.1182712 C27.8867797,31.5497458 29.8360847,28.3967627 29.8360847,24.8900847 C29.8360847,24.8900847 29.8360847,16.7288136 29.8360847,16.7288136 Z M38.1574746,18.9656949 C37.4835424,18.5482712 36.6558644,18.5108305 35.9460847,18.8661186 C35.9460847,18.8661186 31.4293051,21.1245085 31.4293051,21.1245085 C31.4293051,21.1245085 31.4293051,24.8900847 31.4293051,24.8900847 C31.4293051,26.4474576 31.0987119,27.9434915 30.4924915,29.3041017 C30.4924915,29.3041017 36.3435932,25.9033729 36.3435932,25.9033729 C38.128,24.8733559 39.2352881,22.9559153 39.2352881,20.8982712 C39.2352881,20.1048475 38.833,19.382322 38.1574746,18.9656949 Z M14.5403729,24.6949153 C14.1006441,24.6949153 13.7437627,24.3380339 13.7437627,23.8983051 C13.7437627,23.8983051 13.7437627,18.3220339 13.7437627,18.3220339 C13.7437627,17.8823051 14.1006441,17.5254237 14.5403729,17.5254237 C14.9808983,17.5254237 15.3369831,17.8823051 15.3369831,18.3220339 C15.3369831,18.3220339 15.3369831,23.8983051 15.3369831,23.8983051 C15.3369831,24.3380339 14.9808983,24.6949153 14.5403729,24.6949153 Z M31.237322,2.98250847 C31.2556441,3.04783051 31.2691864,3.11554237 31.2691864,3.18644068 C31.2691864,3.18644068 31.2691864,12.7457627 31.2691864,12.7457627 C31.2691864,13.1854915 30.9131017,13.5423729 30.4725763,13.5423729 C30.0328475,13.5423729 29.6759661,13.1854915 29.6759661,12.7457627 C29.6759661,12.7457627 29.6759661,5.41774576 29.6759661,5.41774576 C29.6759661,5.41774576 26.9882034,8.70376271 26.9882034,8.70376271 C26.5628136,9.22315254 25.936678,9.50355932 25.2619492,9.47567797 C24.5904068,9.44620339 23.9889661,9.11083051 23.6105763,8.55638983 C23.6105763,8.55638983 20.9132542,4.60042373 20.9132542,4.60042373 C20.9132542,4.60042373 18.2167288,8.55638983 18.2167288,8.55638983 C17.838339,9.11083051 17.2361017,9.44620339 16.5645593,9.47567797 C15.897,9.50515254 15.2652881,9.22315254 14.8391017,8.70376271 C14.8391017,8.70376271 12.1505424,5.41774576 12.1505424,5.41774576 C12.1505424,5.41774576 12.1505424,12.7457627 12.1505424,12.7457627 C12.1505424,13.1854915 11.7944576,13.5423729 11.3539322,13.5423729 C10.9142034,13.5423729 10.557322,13.1854915 10.557322,12.7457627 C10.557322,12.7457627 10.557322,3.18644068 10.557322,3.18644068 C10.557322,3.11554237 10.571661,3.04783051 10.5891864,2.98250847 C10.0984746,2.71086441 9.76071186,2.1930678 9.76071186,1.59322034 C9.76071186,0.714559322 10.4752712,0 11.3539322,0 C12.2325932,0 12.9471525,0.714559322 12.9471525,1.59322034 C12.9471525,2.16598305 12.6412542,2.66466102 12.1863898,2.94586441 C12.1863898,2.94586441 16.0722542,7.69445763 16.0722542,7.69445763 C16.2156441,7.86971186 16.4004576,7.89042373 16.4952542,7.88405085 C16.5924407,7.8800678 16.7732712,7.84501695 16.8999322,7.65861017 C16.8999322,7.65861017 20.1046949,2.95861017 20.1046949,2.95861017 C19.6378814,2.68059322 19.3200339,2.17554237 19.3200339,1.59322034 C19.3200339,0.714559322 20.0345932,0 20.9132542,0 C21.7919153,0 22.5064746,0.714559322 22.5064746,1.59322034 C22.5064746,2.17554237 22.1894237,2.68059322 21.7226102,2.95861017 C21.7226102,2.95861017 24.9265763,7.65861017 24.9265763,7.65861017 C25.0540339,7.84501695 25.2348644,7.8800678 25.3320508,7.88405085 C25.4276441,7.89042373 25.611661,7.86971186 25.7550508,7.69445763 C25.7550508,7.69445763 29.6409153,2.94586441 29.6409153,2.94586441 C29.1860508,2.66466102 28.8793559,2.16598305 28.8793559,1.59322034 C28.8793559,0.714559322 29.5939153,0 30.4725763,0 C31.3512373,0 32.0657966,0.714559322 32.0657966,1.59322034 C32.0657966,2.1930678 31.7288305,2.71086441 31.237322,2.98250847 Z" id="Shape" fill="#FFFFFF"></path>
                </g>
            </g>
        </g>
    </g>
</svg>