<?xml version="1.0" encoding="UTF-8"?>
<svg width="185px" height="40px" viewBox="0 0 185 40" version="1.1" xmlns="http://www.w3.org/2000/svg" xmlns:xlink="http://www.w3.org/1999/xlink">
    <!-- Generator: sketchtool 52.3 (67297) - http://www.bohemiancoding.com/sketch -->
    <title>2BEF9222-7E62-4E90-80B6-FC7698F5CC08</title>
    <desc>Created with sketchtool.</desc>
    <g id="Landing-Page" stroke="none" stroke-width="1" fill="none" fill-rule="evenodd">
        <g id="Landing-page-Copy" transform="translate(-109.000000, -38.000000)">
            <g id="logo" transform="translate(109.000000, 38.000000)">
                <g id="Group-5">
                    <g id="Logo">
                        <g id="Group-6">
                            <g id="Logo-/-Icon-/-Mobile-Copy" transform="translate(0.000000, 0.026790)" fill="#FF5111" fill-rule="nonzero">
                                <path d="M12.0956988,38.3879515 C12.0956988,37.7013378 12.6794054,37.1395629 13.3928246,37.1395629 C14.1062439,37.1395629 14.6899505,37.7013378 14.6899505,38.3879515 C14.6899505,39.0745653 14.1062439,39.6363402 13.3928246,39.6363402 C12.6794054,39.6363402 12.0956988,39.105775 12.0956988,38.3879515 Z M12.0956988,1.24838867 C12.0956988,0.5617749 12.6794054,0 13.3928246,0 C14.1062439,0 14.6899505,0.5617749 14.6899505,1.24838867 C14.6899505,1.93500243 14.1062439,2.49677733 13.3928246,2.49677733 C12.6794054,2.49677733 12.0956988,1.96621215 12.0956988,1.24838867 Z M5.6100694,7.490332 C5.6100694,6.80371824 6.19377604,6.24194334 6.90719527,6.24194334 C7.6206145,6.24194334 8.20432114,6.80371824 8.20432114,7.490332 C8.20432114,8.17694577 7.6206145,8.73872067 6.90719527,8.73872067 C6.19377604,8.73872067 5.6100694,8.20815549 5.6100694,7.490332 Z M6.16134789,13.7322753 C6.16134789,13.326549 6.48562936,13.0144519 6.90719527,13.0144519 C7.32876118,13.0144519 7.65304265,13.326549 7.65304265,13.7322753 C7.65304265,14.1380017 7.32876118,14.4500988 6.90719527,14.4500988 C6.48562936,14.4500988 6.16134789,14.1380017 6.16134789,13.7322753 Z M0,13.7322753 C0,13.5138073 0.194568881,13.326549 0.421565908,13.326549 C0.648562936,13.326549 0.843131817,13.5138073 0.843131817,13.7322753 C0.843131817,13.9507434 0.648562936,14.1380017 0.421565908,14.1380017 C0.194568881,14.1380017 0,13.9819531 0,13.7322753 Z M0,19.5684924 C0,19.3500243 0.194568881,19.162766 0.421565908,19.162766 C0.648562936,19.162766 0.843131817,19.3500243 0.843131817,19.5684924 C0.843131817,19.7869604 0.648562936,19.9742187 0.421565908,19.9742187 C0.194568881,19.9742187 0,19.7869604 0,19.5684924 Z M0,26.216162 C0,25.997694 0.194568881,25.8104357 0.421565908,25.8104357 C0.648562936,25.8104357 0.843131817,25.997694 0.843131817,26.216162 C0.843131817,26.43463 0.648562936,26.6218883 0.421565908,26.6218883 C0.194568881,26.6218883 0,26.4658397 0,26.216162 Z M6.16134789,19.5684924 C6.16134789,19.162766 6.48562936,18.8506689 6.90719527,18.8506689 C7.32876118,18.8506689 7.65304265,19.162766 7.65304265,19.5684924 C7.65304265,19.9742187 7.32876118,20.2863158 6.90719527,20.2863158 C6.48562936,20.2863158 6.16134789,19.9742187 6.16134789,19.5684924 Z M6.16134789,26.216162 C6.16134789,25.8104357 6.48562936,25.4983385 6.90719527,25.4983385 C7.32876118,25.4983385 7.65304265,25.8104357 7.65304265,26.216162 C7.65304265,26.6218883 7.32876118,26.9339855 6.90719527,26.9339855 C6.48562936,26.9339855 6.16134789,26.6218883 6.16134789,26.216162 Z M5.6100694,32.4581053 C5.6100694,31.7714916 6.19377604,31.2097167 6.90719527,31.2097167 C7.6206145,31.2097167 8.20432114,31.7714916 8.20432114,32.4581053 C8.20432114,33.1447191 7.6206145,33.706494 6.90719527,33.706494 C6.19377604,33.706494 5.6100694,33.1759288 5.6100694,32.4581053 Z M11.2201388,7.17823484 C11.2201388,5.92984617 12.2254113,5.08718382 13.3928246,5.08718382 C14.6899505,5.08718382 15.5655105,6.05468504 15.5655105,7.17823484 C15.5655105,8.30178464 14.5602379,9.26928585 13.3928246,9.26928585 C12.0956988,9.26928585 11.2201388,8.30178464 11.2201388,7.17823484 Z M18.3543311,7.490332 C18.3543311,6.24194334 19.3596036,5.39928099 20.5270169,5.39928099 C21.8241428,5.39928099 22.6997028,6.3667822 22.6997028,7.490332 C22.6997028,8.6138818 21.6944302,9.58138302 20.5270169,9.58138302 C19.2298911,9.58138302 18.3543311,8.6138818 18.3543311,7.490332 Z M18.3543311,32.4581053 C18.3543311,31.2097167 19.3596036,30.3670543 20.5270169,30.3670543 C21.8241428,30.3670543 22.6997028,31.3345555 22.6997028,32.4581053 C22.6997028,33.5816551 21.6944302,34.5491564 20.5270169,34.5491564 C19.2298911,34.5491564 18.3543311,33.5816551 18.3543311,32.4581053 Z M18.3543311,19.6621215 C18.3543311,18.4137328 19.3596036,17.5710705 20.5270169,17.5710705 C21.8241428,17.5710705 22.6997028,18.5385717 22.6997028,19.6621215 C22.6997028,20.7856713 21.6944302,21.7531725 20.5270169,21.7531725 C19.2298911,21.7531725 18.3543311,20.7856713 18.3543311,19.6621215 Z M11.2201388,32.1460082 C11.2201388,30.8976195 12.2254113,30.0549572 13.3928246,30.0549572 C14.6899505,30.0549572 15.5655105,31.0224584 15.5655105,32.1460082 C15.5655105,33.269558 14.5602379,34.2370592 13.3928246,34.2370592 C12.0956988,34.2370592 11.2201388,33.269558 11.2201388,32.1460082 Z M10.831001,13.108081 C10.831001,11.6100146 12.0308425,10.6425134 13.3928246,10.6425134 C14.9493757,10.6425134 15.9546482,11.7972729 15.9546482,13.108081 C15.9546482,14.4188891 14.7548068,15.5736486 13.3928246,15.5736486 C11.8362736,15.6048583 10.831001,14.4500988 10.831001,13.108081 Z M10.831001,26.216162 C10.831001,24.7180956 12.0308425,23.7505944 13.3928246,23.7505944 C14.9493757,23.7505944 15.9546482,24.9053539 15.9546482,26.216162 C15.9546482,27.5269701 14.7548068,28.6817296 13.3928246,28.6817296 C11.8362736,28.7129393 10.831001,27.5581798 10.831001,26.216162 Z M24.0292568,14.6373571 C23.3158376,13.3577587 23.8022598,11.8596923 25.0993856,11.1418689 C26.4289396,10.4552551 27.9854907,10.9234008 28.7313381,12.1717895 C29.4447573,13.4513879 28.9583351,14.9494543 27.6612092,15.6672778 C27.3044996,15.8857458 26.8180774,16.0105847 26.4613678,16.0105847 C25.4560952,16.0417944 24.4832508,15.4488098 24.0292568,14.6373571 Z M10.7661447,20.9105102 C9.95544107,19.4748632 10.5067196,17.7895385 11.9984143,17.0092956 C13.4901091,16.2290527 15.241229,16.7596179 16.0519327,18.1952648 C16.8626363,19.6309118 16.3113578,21.3162365 14.8196631,22.0964794 C14.3980972,22.3461571 13.8792468,22.5022057 13.4576809,22.5022057 C12.3875521,22.470996 11.2849951,21.8468017 10.7661447,20.9105102 Z M23.5428346,27.3709215 C22.6672746,25.8416454 23.2509813,24.0314818 24.8399605,23.1888195 C26.4289396,22.3461571 28.3097722,22.907932 29.1853321,24.4372082 C30.0608921,25.9664843 29.4771854,27.7766478 27.8882062,28.6193102 C27.4666403,28.9001976 26.8829337,29.0250365 26.4289396,29.0250365 C25.2939545,29.0250365 24.1265412,28.3384227 23.5428346,27.3709215 Z" id="Combined-Shape"></path>
                            </g>
                            <path d="M48.3507309,29.1343356 L40.3101636,29.1343356 L40.3101636,10.2658841 L48.0539314,10.2658841 C50.1585199,10.2658841 51.7414345,10.7353761 52.8027228,11.6743742 C53.864011,12.6133722 54.3946471,13.8535397 54.3946471,15.3949139 C54.3946471,16.3870628 54.1473167,17.2463217 53.6526485,17.9727164 C53.1579803,18.6991112 52.4789459,19.2394699 51.6155249,19.5938088 C52.5688855,19.9127138 53.3243675,20.4486433 53.8819935,21.2016134 C54.4396196,21.9545836 54.7184284,22.8359883 54.7184284,23.8458542 C54.7184284,25.5112469 54.1698046,26.8089937 53.0725405,27.7391332 C51.9752764,28.6692728 50.4013556,29.1343356 48.3507309,29.1343356 Z M48.3237491,21.0554494 L43.5209942,21.0554494 L43.5209942,26.2110544 L48.2967673,26.2110544 C50.3833679,26.2110544 51.4266525,25.3517955 51.4266525,23.6332519 C51.4266525,22.8182724 51.1568375,22.1849012 50.6171995,21.7331191 C50.0775614,21.281337 49.3130856,21.0554494 48.3237491,21.0554494 Z M48.0809132,13.1891654 L43.5209942,13.1891654 L43.5209942,18.1055929 L48.0809132,18.1055929 C50.095562,18.1055929 51.1028713,17.2906256 51.1028713,15.6606668 C51.1028713,14.8811212 50.851044,14.274325 50.3473818,13.8402598 C49.8437196,13.4061947 49.0882376,13.1891654 48.0809132,13.1891654 Z M56.3823041,18.1587434 L56.3823041,15.3417633 L61.6437491,15.3417633 L61.6437491,29.1343356 L58.4329186,29.1343356 L58.4329186,18.1587434 L56.3823041,18.1587434 Z M60.0518247,13.0297137 C59.4582228,13.0297137 58.9725558,12.8481177 58.5948092,12.4849203 C58.2170625,12.121723 58.028192,11.6566602 58.028192,11.0897179 C58.028192,10.5050588 58.2170625,10.0267085 58.5948092,9.65465262 C58.9725558,9.28259678 59.4582228,9.09657166 60.0518247,9.09657166 C60.6274387,9.09657166 61.1041118,9.28259678 61.4818585,9.65465262 C61.8596051,10.0267085 62.0484756,10.5050588 62.0484756,11.0897179 C62.0484756,11.6566602 61.8596051,12.121723 61.4818585,12.4849203 C61.1041118,12.8481177 60.6274387,13.0297137 60.0518247,13.0297137 Z M71.5910279,26.3173556 L71.5910279,29.0546098 C71.1952933,29.1609114 70.6376757,29.2140615 69.9181582,29.2140615 C67.183992,29.2140615 65.8169293,27.8587356 65.8169293,25.1480431 L65.8169293,17.8664153 L63.6853696,17.8664153 L63.6853696,15.3417633 L65.8169293,15.3417633 L65.8169293,11.7541 L69.0277599,11.7541 L69.0277599,15.3417633 L71.6449915,15.3417633 L71.6449915,17.8664153 L69.0277599,17.8664153 L69.0277599,24.8291397 C69.0277599,25.9098733 69.5494022,26.450232 70.5927025,26.450232 L71.5910279,26.3173556 Z M72.7692318,22.2513371 C72.7692318,20.2138885 73.4257816,18.4997999 74.738901,17.1090197 C76.0520203,15.7182396 77.7248732,15.0228599 79.75751,15.0228599 C81.6822192,15.0228599 83.2156677,15.5587895 84.3579017,16.6306646 C85.5001356,17.7025397 86.17917,18.9382781 86.3950252,20.3379167 L83.1032494,20.3379167 C82.9053821,19.5760881 82.5051565,18.9648627 81.9025607,18.5042221 C81.2999648,18.0435816 80.5759612,17.8132647 79.7305282,17.8132647 C78.5972883,17.8132647 77.6889111,18.2251775 77.0053696,19.0490154 C76.321828,19.8728534 75.9800623,20.9402832 75.9800623,22.2513371 C75.9800623,23.562391 76.321828,24.6253917 77.0053696,25.4403712 C77.6889111,26.2553506 78.5972883,26.6628342 79.7305282,26.6628342 C80.5759612,26.6628342 81.2999648,26.4325174 81.9025607,25.9718769 C82.5051565,25.5112363 82.9053821,24.9000109 83.1032494,24.1381823 L86.3950252,24.1381823 C86.17917,25.5378209 85.5001356,26.7735592 84.3579017,27.8454344 C83.2156677,28.9173095 81.6822192,29.453239 79.75751,29.453239 C77.7248732,29.453239 76.0520203,28.7578594 74.738901,27.3670793 C73.4257816,25.9762991 72.7692318,24.2710688 72.7692318,22.2513371 Z M97.3676113,23.2346226 C94.2377104,23.2346226 92.4029685,23.3763561 91.8633304,23.6598272 C91.3057044,23.9432983 91.0268956,24.457082 91.0268956,25.2011936 C91.0268956,26.3882289 91.8273467,26.9817376 93.428273,26.9817376 C96.0545117,26.9817376 97.3676113,25.971887 97.3676113,23.9521553 L97.3676113,23.2346226 Z M92.8616559,29.453239 C91.2067657,29.453239 89.9746106,29.0546138 89.1651535,28.2573513 C88.3556964,27.4600888 87.9509739,26.4059464 87.9509739,25.0948925 C87.9509739,23.4117828 88.7064559,22.2336236 90.2174425,21.5603798 C90.5772012,21.4009273 90.9234638,21.2813397 91.2562406,21.2016134 C91.5890174,21.1218872 92.2680518,21.0421621 93.2933642,20.9624359 C94.3186765,20.8827096 95.6767453,20.8428471 97.3676113,20.8428471 L97.3676113,20.1518897 C97.3676113,18.46878 96.3692958,17.6272378 94.3726349,17.6272378 C92.6278051,17.6272378 91.6384835,18.3093299 91.4046403,19.6735346 L88.2747551,19.6735346 C88.4186586,18.3270468 88.989767,17.2153252 89.9880974,16.3383365 C90.9864279,15.4613477 92.4749073,15.0228599 94.4535802,15.0228599 C96.4502411,15.0228599 97.9567082,15.4746352 98.9730266,16.3781994 C99.989345,17.2817636 100.497497,18.5485061 100.497497,20.178465 L100.497497,29.1343356 L97.5295019,29.1343356 L97.5295019,27.672695 C96.5221775,28.8597303 94.9662444,29.453239 92.8616559,29.453239 Z M108.879833,29.453239 C106.955124,29.453239 105.507116,29.0103221 104.535768,28.1244748 C103.564419,27.2386276 103.033783,26.1047602 102.943844,24.7228385 L106.046747,24.7228385 C106.082723,25.3606485 106.361532,25.8744322 106.883182,26.264205 C107.404832,26.6539778 108.133332,26.8488612 109.068705,26.8488612 C109.89615,26.8488612 110.534712,26.7071278 110.984411,26.4236567 C111.434109,26.1401856 111.658955,25.759277 111.658955,25.2809195 C111.658955,24.7494112 111.384643,24.355215 110.836011,24.0983194 C110.287379,23.8414237 109.617338,23.6509694 108.825869,23.5269508 C108.0344,23.4029321 107.242943,23.2390529 106.451474,23.035308 C105.660004,22.8315631 104.989964,22.4285087 104.441332,21.8261326 C103.8927,21.2237565 103.618388,20.3999309 103.618388,19.3546312 C103.618388,18.149879 104.126539,17.1267408 105.142858,16.2851859 C106.159176,15.4436311 107.503754,15.0228599 109.176632,15.0228599 C110.129993,15.0228599 110.970916,15.1690225 111.699428,15.4613521 C112.427939,15.7536817 112.994551,16.1390195 113.399279,16.617377 C113.804008,17.0957345 114.109798,17.5829431 114.316659,18.0790176 C114.523521,18.575092 114.644937,19.0800174 114.680913,19.5938088 L111.604991,19.5938088 C111.551028,19.0445835 111.312691,18.5750915 110.889975,18.1853187 C110.467258,17.7955459 109.869168,17.6006625 109.095687,17.6006625 C108.322206,17.6006625 107.728613,17.7468251 107.31489,18.0391547 C106.901168,18.3314842 106.694309,18.7345387 106.694309,19.2483301 C106.694309,19.7266876 106.968621,20.0898795 107.517253,20.3379167 C108.065885,20.5859539 108.735926,20.771979 109.527395,20.8959977 C110.318864,21.0200163 111.110322,21.1927539 111.901791,21.4142157 C112.69326,21.6356775 113.363301,22.0564486 113.911933,22.6765417 C114.460565,23.2966347 114.734877,24.1204603 114.734877,25.1480431 C114.734877,26.3882292 114.226725,27.4157965 113.210407,28.230776 C112.194088,29.0457554 110.750578,29.453239 108.879833,29.453239 Z M115.994026,18.1587434 L115.994026,15.3417633 L121.255471,15.3417633 L121.255471,29.1343356 L118.04464,29.1343356 L118.04464,18.1587434 L115.994026,18.1587434 Z M119.663546,13.0297137 C119.069945,13.0297137 118.584278,12.8481177 118.206531,12.4849203 C117.828784,12.121723 117.639914,11.6566602 117.639914,11.0897179 C117.639914,10.5050588 117.828784,10.0267085 118.206531,9.65465262 C118.584278,9.28259678 119.069945,9.09657166 119.663546,9.09657166 C120.23916,9.09657166 120.715834,9.28259678 121.09358,9.65465262 C121.471327,10.0267085 121.660197,10.5050588 121.660197,11.0897179 C121.660197,11.6566602 121.471327,12.121723 121.09358,12.4849203 C120.715834,12.8481177 120.23916,13.0297137 119.663546,13.0297137 Z M127.883992,15.3417633 L127.883992,17.1754579 C128.207775,16.5730818 128.742908,16.0637273 129.489407,15.6473791 C130.235907,15.2310309 131.139787,15.0228599 132.201075,15.0228599 C133.855965,15.0228599 135.137586,15.5189269 136.045977,16.5110758 C136.954368,17.5032247 137.408557,18.8231173 137.408557,20.4707931 L137.408557,29.1343356 L134.197726,29.1343356 L134.197726,20.8694224 C134.197726,19.8949904 133.968383,19.1287441 133.509691,18.5706603 C133.050999,18.0125766 132.353977,17.7335389 131.418604,17.7335389 C130.393291,17.7335389 129.588343,18.0347224 129.003736,18.6370985 C128.419128,19.2394746 128.126828,20.0721585 128.126828,21.1351752 L128.126828,29.1343356 L124.915997,29.1343356 L124.915997,15.3417633 L127.883992,15.3417633 Z M147.301872,29.453239 C145.14332,29.453239 143.394019,28.7534302 142.053918,27.3537916 C140.713817,25.954153 140.043776,24.2533519 140.043776,22.2513371 C140.043776,20.2493224 140.713817,18.5440921 142.053918,17.135595 C143.394019,15.7270979 145.14332,15.0228599 147.301872,15.0228599 C149.478412,15.0228599 151.236707,15.7270979 152.576808,17.135595 C153.916909,18.5440921 154.58695,20.2493224 154.58695,22.2513371 C154.58695,24.2533519 153.916909,25.954153 152.576808,27.3537916 C151.236707,28.7534302 149.478412,29.453239 147.301872,29.453239 Z M143.254607,22.2513371 C143.254607,23.562391 143.636844,24.6253917 144.401332,25.4403712 C145.165819,26.2553506 146.132656,26.6628342 147.301872,26.6628342 C148.489076,26.6628342 149.464907,26.2553506 150.229394,25.4403712 C150.993881,24.6253917 151.376119,23.562391 151.376119,22.2513371 C151.376119,20.9225663 150.993881,19.8507072 150.229394,19.0357278 C149.464907,18.2207483 148.489076,17.8132647 147.301872,17.8132647 C146.132656,17.8132647 145.165819,18.2207483 144.401332,19.0357278 C143.636844,19.8507072 143.254607,20.9225663 143.254607,22.2513371 Z M158.706166,29.3469379 C158.058601,29.3469379 157.523468,29.1476253 157.100751,28.748994 C156.678035,28.3503628 156.466679,27.8321499 156.466679,27.1943399 C156.466679,26.5742469 156.678035,26.056034 157.100751,25.6396858 C157.523468,25.2233376 158.058601,25.0151666 158.706166,25.0151666 C159.335744,25.0151666 159.861883,25.2233376 160.2846,25.6396858 C160.707316,26.056034 160.918671,26.5742469 160.918671,27.1943399 C160.918671,27.8321499 160.711813,28.3503628 160.298091,28.748994 C159.884368,29.1476253 159.353732,29.3469379 158.706166,29.3469379 Z M162.33317,18.1587434 L162.33317,15.3417633 L167.594615,15.3417633 L167.594615,29.1343356 L164.383785,29.1343356 L164.383785,18.1587434 L162.33317,18.1587434 Z M166.002691,13.0297137 C165.409089,13.0297137 164.923422,12.8481177 164.545675,12.4849203 C164.167929,12.121723 163.979058,11.6566602 163.979058,11.0897179 C163.979058,10.5050588 164.167929,10.0267085 164.545675,9.65465262 C164.923422,9.28259678 165.409089,9.09657166 166.002691,9.09657166 C166.578305,9.09657166 167.054978,9.28259678 167.432724,9.65465262 C167.810471,10.0267085 167.999342,10.5050588 167.999342,11.0897179 C167.999342,11.6566602 167.810471,12.121723 167.432724,12.4849203 C167.054978,12.8481177 166.578305,13.0297137 166.002691,13.0297137 Z M177.616298,29.453239 C175.457746,29.453239 173.708445,28.7534302 172.368344,27.3537916 C171.028243,25.954153 170.358202,24.2533519 170.358202,22.2513371 C170.358202,20.2493224 171.028243,18.5440921 172.368344,17.135595 C173.708445,15.7270979 175.457746,15.0228599 177.616298,15.0228599 C179.792838,15.0228599 181.551133,15.7270979 182.891234,17.135595 C184.231335,18.5440921 184.901376,20.2493224 184.901376,22.2513371 C184.901376,24.2533519 184.231335,25.954153 182.891234,27.3537916 C181.551133,28.7534302 179.792838,29.453239 177.616298,29.453239 Z M173.569033,22.2513371 C173.569033,23.562391 173.951271,24.6253917 174.715758,25.4403712 C175.480245,26.2553506 176.447082,26.6628342 177.616298,26.6628342 C178.803502,26.6628342 179.779333,26.2553506 180.54382,25.4403712 C181.308307,24.6253917 181.690545,23.562391 181.690545,22.2513371 C181.690545,20.9225663 181.308307,19.8507072 180.54382,19.0357278 C179.779333,18.2207483 178.803502,17.8132647 177.616298,17.8132647 C176.447082,17.8132647 175.480245,18.2207483 174.715758,19.0357278 C173.951271,19.8507072 173.569033,20.9225663 173.569033,22.2513371 Z" id="Bitcasino.io" fill="#FFFFFF"></path>
                        </g>
                    </g>
                </g>
            </g>
        </g>
    </g>
</svg>